# xmcd
#
# Track frame offsets: 
#        150
#        14801
#        28930
#        47568
#        68496
#        87065
#        102371
#        117003
#
# Disc length: 1769 seconds
#
# Revision: 0
# Processed by: cddbd v1.5.2PL0 Copyright (c) Steve Scherf et al.
# Submitted via: ExactAudioCopyFreeDBPlugin 1.0
#
DISCID=5f06e708
DTITLE=Katie Rox - Paper Airplanes
DYEAR=2015
DGENRE=Country
TTITLE0=Contest
TTITLE1=Sun Goes Down
TTITLE2=Too Late
TTITLE3=Arizona
TTITLE4=All I Ever
TTITLE5=Let You Down
TTITLE6=Always Will Be
TTITLE7=Never Going Back
EXTD=
EXTT0=
EXTT1=
EXTT2=
EXTT3=
EXTT4=
EXTT5=
EXTT6=
EXTT7=
PLAYORDER=
